# xmcd
#
# Track frame offsets:
#	182
#	11452
#	22865
#	34092
#	45147
#	57062
#	69317
#	85335
#	100520
#	108615
#	119277
#	130640
#	145782
#	158335
#	166757
#	181347
#	192837
#	204682
#	218395
#	231267
#	246515
#
# Disc length: 3467 seconds
#
# Revision: 1
# Processed by: cddbd v1.4PL0 Copyright (c) Steve Scherf et al.
# Submitted via: EasyCDDAExtractor 5.0.7
#
DISCID=010d8915
DTITLE=Various Artist - Vandrsranda LIVE v C15
DYEAR=1994
DGENRE=Country
TTITLE0=Autor neznamy - Kabalero
TTITLE1=Josef Sysel - Hej, Jackie!
TTITLE2=Nada Nachlingerova - Maly medved
TTITLE3=Charlie Fleisleber - Az pujdes kolem hrbitova
TTITLE4=Emil Novotny - Pipa
TTITLE5=Wabi Ryvola - Make love cosa nostra
TTITLE6=Vilem Lebeda - Pisen o hnoji
TTITLE7=Robert Svoma - Merlin song
TTITLE8=Tradicional/Pavel Bezouska - Janosik (Jesse James)
TTITLE9=Autori neznami - Zprava z Argentiny
TTITLE10=Tradicional - Chechtava (Long Hing Policeman)
TTITLE11=Tony Linhart - Zhrzena laska
TTITLE12=Wabi Ryvola - Pat a Dan
TTITLE13=Autori neznami - Tulak Sima
TTITLE14=Zuzanka (Boy named Sue)
TTITLE15=Vilda Sykora - Hastrman
TTITLE16=Josef Stelibsky/Jiri Melisek/Jarda Mottl - Pady
TTITLE17=Elmer Schoebel/Pavel Dousa - Do vody, Vasku, ne! (Nobody's Sweetheart
TTITLE17=)
TTITLE18=Eduard Ingris/Jaroslav Jankovec/Josef Chlumecky - Trampske milovani
TTITLE19=Josef (Bonny) Konsal - Zpiva si i totem
TTITLE20=Trad./Anonym - General (Washington and Lee)
EXTD=
EXTT0=
EXTT1=
EXTT2=
EXTT3=
EXTT4=
EXTT5=
EXTT6=
EXTT7=
EXTT8=
EXTT9=
EXTT10=
EXTT11=
EXTT12=
EXTT13=
EXTT14=
EXTT15=
EXTT16=
EXTT17=
EXTT18=
EXTT19=
EXTT20=
PLAYORDER=
